Coordinates
version=1
nRows=31
nColumns=38
inDegrees=no

Units are S.I. units (second, meters, Newtons, ...)
If the header above contains a line with 'inDegrees', this indicates whether rotational values are in degrees (yes) or radians (no).

endheader
time	pelvis_tilt	pelvis_list	pelvis_rotation	pelvis_tx	pelvis_ty	pelvis_tz	hip_flexion_r	hip_adduction_r	hip_rotation_r	knee_angle_r	ankle_angle_r	subtalar_angle_r	mtp_angle_r	hip_flexion_l	hip_adduction_l	hip_rotation_l	knee_angle_l	ankle_angle_l	subtalar_angle_l	mtp_angle_l	lumbar_extension	lumbar_bending	lumbar_rotation	arm_flex_r	arm_add_r	arm_rot_r	elbow_flex_r	pro_sup_r	wrist_flex_r	wrist_dev_r	arm_flex_l	arm_add_l	arm_rot_l	elbow_flex_l	pro_sup_l	wrist_flex_l	wrist_dev_l
15	1.18859	1.51411	0.450213	0.623419	-0.156843	0.873426	0.553858	-0.0427458	-0.111462	0.932556	-0.238684	0	0	0.557777	-0.238688	-0.349637	1.03905	-0.24963	0	0	-0.470279	0.149685	-0.195908	0.585413	-0.244074	0.988983	0.259227	0.94275	0	0	0.28099	-0.466875	0.66447	0.625907	0.660087	0	0
15.01	1.15342	1.5123	0.485116	0.623647	-0.158904	0.870975	0.565903	-0.0426227	-0.11075	0.944287	-0.236225	0	0	0.570552	-0.240418	-0.34637	1.0508	-0.248072	0	0	-0.477471	0.15149	-0.194663	0.590362	-0.243451	0.984383	0.259909	0.945687	0	0	0.284349	-0.466872	0.65807	0.62679	0.663573	0	0
15.02	1.12603	1.51138	0.512889	0.623774	-0.160852	0.868395	0.577454	-0.0446693	-0.11231	0.957254	-0.233663	0	0	0.582356	-0.2413	-0.343461	1.0628	-0.246021	0	0	-0.484733	0.152875	-0.194431	0.594958	-0.242744	0.980037	0.260645	0.948965	0	0	0.287051	-0.467076	0.651231	0.62804	0.667004	0	0
15.03	1.10077	1.50979	0.53799	0.623966	-0.162845	0.865794	0.588938	-0.0454248	-0.112529	0.968783	-0.231312	0	0	0.594237	-0.243083	-0.340607	1.07485	-0.243443	0	0	-0.492211	0.15442	-0.193141	0.599435	-0.242478	0.975246	0.262057	0.952183	0	0	0.289601	-0.46743	0.644591	0.629598	0.671939	0	0
15.04	1.07698	1.50813	0.561632	0.624161	-0.164801	0.863155	0.600277	-0.0459517	-0.112333	0.980115	-0.228769	0	0	0.60577	-0.245221	-0.338412	1.08693	-0.240209	0	0	-0.499605	0.15587	-0.191805	0.603641	-0.242313	0.969774	0.263787	0.95508	0	0	0.292144	-0.467696	0.637831	0.631341	0.676069	0	0
15.05	1.05232	1.50652	0.586195	0.62435	-0.166721	0.860514	0.611691	-0.0463438	-0.111665	0.99196	-0.225881	0	0	0.617041	-0.247352	-0.336898	1.09872	-0.23675	0	0	-0.506981	0.157054	-0.190442	0.607695	-0.242186	0.964211	0.265641	0.958143	0	0	0.294867	-0.467935	0.631087	0.633175	0.679475	0	0
15.06	1.02669	1.50461	0.611639	0.62461	-0.168681	0.857946	0.62309	-0.0457321	-0.109707	1.00293	-0.222926	0	0	0.628268	-0.249267	-0.335139	1.10922	-0.233681	0	0	-0.514514	0.157985	-0.188594	0.611798	-0.241911	0.95862	0.267325	0.961276	0	0	0.29804	-0.468494	0.624977	0.635402	0.682956	0	0
15.07	1.0216	1.50506	0.617651	0.624796	-0.170462	0.855458	0.632421	-0.0478858	-0.110049	1.01598	-0.220004	0	0	0.636439	-0.24957	-0.333944	1.11914	-0.230722	0	0	-0.523388	0.158163	-0.188319	0.615701	-0.240937	0.952871	0.268282	0.964254	0	0	0.301349	-0.469362	0.619781	0.637213	0.686478	0	0
15.08	1.00846	1.50358	0.630246	0.625115	-0.172273	0.852991	0.642366	-0.046475	-0.107237	1.02532	-0.217625	0	0	0.646481	-0.251906	-0.332606	1.12917	-0.228379	0	0	-0.531394	0.158936	-0.185924	0.619837	-0.240164	0.947187	0.269043	0.967457	0	0	0.305333	-0.469338	0.614587	0.637937	0.69049	0	0
15.09	1.00702	1.50308	0.632666	0.625281	-0.173875	0.850373	0.651859	-0.0477302	-0.107929	1.03759	-0.214812	0	0	0.655928	-0.25327	-0.330296	1.14044	-0.225663	0	0	-0.539179	0.160106	-0.185296	0.623536	-0.238938	0.941381	0.269114	0.970593	0	0	0.308926	-0.469321	0.60992	0.638232	0.6948	0	0
15.1	1.00612	1.50081	0.63315	0.625555	-0.175565	0.847782	0.661642	-0.0454264	-0.106081	1.04729	-0.212485	0	0	0.666743	-0.256577	-0.327339	1.15172	-0.223358	0	0	-0.546636	0.162084	-0.182582	0.62768	-0.238201	0.937023	0.26926	0.97317	0	0	0.31321	-0.468869	0.606176	0.638076	0.698149	0	0
15.11	1.00372	1.49993	0.63641	0.625704	-0.176984	0.844975	0.671431	-0.0462952	-0.107198	1.0604	-0.208801	0	0	0.676701	-0.258167	-0.324435	1.16361	-0.219864	0	0	-0.553322	0.163353	-0.181566	0.63059	-0.237339	0.931564	0.269328	0.976768	0	0	0.316586	-0.468359	0.601465	0.637922	0.702739	0	0
15.12	0.993064	1.49688	0.646113	0.626003	-0.178597	0.842219	0.681803	-0.0427684	-0.104394	1.06923	-0.205886	0	0	0.688558	-0.26145	-0.320784	1.17501	-0.216551	0	0	-0.559359	0.165176	-0.178344	0.634133	-0.236885	0.927111	0.269761	0.979269	0	0	0.320509	-0.467444	0.596619	0.637397	0.70649	0	0
15.13	0.982907	1.4951	0.655968	0.62626	-0.180063	0.839372	0.692175	-0.0421001	-0.103241	1.0802	-0.203052	0	0	0.699217	-0.263501	-0.31787	1.18663	-0.21271	0	0	-0.565372	0.166089	-0.176124	0.636904	-0.23642	0.922352	0.270497	0.981505	0	0	0.323831	-0.466773	0.591133	0.637242	0.710671	0	0
15.14	0.972249	1.49374	0.666552	0.626474	-0.181539	0.83652	0.702564	-0.0423207	-0.102633	1.09204	-0.200229	0	0	0.709268	-0.265117	-0.315533	1.198	-0.208894	0	0	-0.571627	0.166523	-0.174044	0.639457	-0.236266	0.917475	0.271805	0.983615	0	0	0.326971	-0.466262	0.585562	0.637453	0.716302	0	0
15.15	0.941303	1.49222	0.697561	0.626658	-0.182943	0.833593	0.714264	-0.0436089	-0.102047	1.10377	-0.196454	0	0	0.720098	-0.265662	-0.313974	1.2086	-0.20453	0	0	-0.576743	0.165978	-0.172318	0.641245	-0.23662	0.910924	0.274245	0.98605	0	0	0.329463	-0.465453	0.577903	0.638155	0.723985	0	0
15.16	0.907204	1.49071	0.732062	0.62687	-0.184332	0.83069	0.725698	-0.0450383	-0.101355	1.11452	-0.193212	0	0	0.730991	-0.265705	-0.312392	1.2186	-0.201177	0	0	-0.581448	0.165235	-0.171019	0.643079	-0.236717	0.906068	0.276311	0.987782	0	0	0.332309	-0.465051	0.571799	0.638849	0.730089	0	0
15.17	0.865446	1.4887	0.774242	0.62713	-0.185656	0.827828	0.737725	-0.0461552	-0.0999184	1.12471	-0.190273	0	0	0.742701	-0.26565	-0.310909	1.22821	-0.198757	0	0	-0.585215	0.164358	-0.169913	0.644827	-0.236566	0.90098	0.278037	0.988883	0	0	0.334914	-0.46453	0.565316	0.63949	0.736553	0	0
15.18	0.824915	1.48659	0.815375	0.627385	-0.186928	0.825092	0.750271	-0.04756	-0.0982641	1.1356	-0.188202	0	0	0.75442	-0.265522	-0.309251	1.23737	-0.197263	0	0	-0.589029	0.163529	-0.169087	0.646843	-0.236155	0.896223	0.279269	0.989784	0	0	0.337391	-0.464162	0.55873	0.640304	0.743225	0	0
15.19	0.79738	1.48442	0.843447	0.627708	-0.188135	0.822526	0.761873	-0.047978	-0.0966968	1.14589	-0.186375	0	0	0.765371	-0.266466	-0.307446	1.24625	-0.196293	0	0	-0.593696	0.163323	-0.168073	0.649374	-0.235361	0.892559	0.279927	0.991003	0	0	0.339638	-0.464124	0.551939	0.641518	0.749584	0	0
15.2	0.812094	1.48479	0.829901	0.627946	-0.189463	0.820303	0.768165	-0.0482769	-0.0972734	1.15571	-0.184085	0	0	0.772117	-0.268057	-0.30485	1.25529	-0.195182	0	0	-0.602253	0.16468	-0.167417	0.653392	-0.233885	0.889819	0.279651	0.992044	0	0	0.342353	-0.464415	0.545233	0.642906	0.75586	0	0
15.21	0.820125	1.48379	0.822222	0.628143	-0.190823	0.818044	0.774691	-0.0466739	-0.0961716	1.16321	-0.181508	0	0	0.780319	-0.270074	-0.301876	1.26427	-0.193766	0	0	-0.609736	0.166216	-0.165876	0.657505	-0.232906	0.887251	0.279791	0.992943	0	0	0.344793	-0.464113	0.53718	0.64432	0.763143	0	0
15.22	0.823662	1.48265	0.818911	0.628264	-0.192121	0.8158	0.781787	-0.0456056	-0.0951877	1.17108	-0.179229	0	0	0.788429	-0.271657	-0.299124	1.27308	-0.191724	0	0	-0.616819	0.167443	-0.164445	0.661394	-0.232293	0.88494	0.280415	0.993791	0	0	0.346785	-0.463363	0.527468	0.645685	0.771234	0	0
15.23	0.829375	1.48129	0.813487	0.628367	-0.193378	0.813587	0.788829	-0.0447889	-0.0948793	1.17886	-0.17694	0	0	0.79637	-0.273448	-0.296509	1.28188	-0.189238	0	0	-0.623802	0.168693	-0.162813	0.664902	-0.232002	0.882333	0.28155	0.994084	0	0	0.348435	-0.462194	0.515949	0.64725	0.780871	0	0
15.24	0.836311	1.48007	0.806873	0.628427	-0.194566	0.81146	0.795437	-0.044584	-0.0954169	1.18679	-0.174287	0	0	0.803505	-0.275197	-0.294531	1.29022	-0.186315	0	0	-0.630913	0.169763	-0.161205	0.668031	-0.23193	0.87907	0.283344	0.993381	0	0	0.349851	-0.46034	0.502559	0.648334	0.793355	0	0
15.25	0.845622	1.47925	0.797793	0.628685	-0.195438	0.809616	0.80053	-0.0441422	-0.0963562	1.1938	-0.171947	0	0	0.808674	-0.277835	-0.294246	1.2971	-0.18415	0	0	-0.6389	0.170141	-0.159062	0.670451	-0.231888	0.876541	0.285405	0.992363	0	0	0.351973	-0.458705	0.491835	0.648424	0.804765	0	0
15.26	0.825803	1.47706	0.817945	0.628704	-0.196549	0.807346	0.809603	-0.0449648	-0.095859	1.20113	-0.168086	0	0	0.817724	-0.277925	-0.2925	1.30424	-0.181324	0	0	-0.643387	0.170228	-0.158302	0.673051	-0.231928	0.874031	0.287801	0.990874	0	0	0.352595	-0.455701	0.475567	0.648408	0.822259	0	0
15.27	0.801115	1.47515	0.843293	0.628564	-0.198061	0.804853	0.820215	-0.0463436	-0.0941882	1.20965	-0.170148	0	0	0.828252	-0.276047	-0.289097	1.3119	-0.181046	0	0	-0.646074	0.170786	-0.158596	0.67721	-0.230657	0.874583	0.28662	0.990591	0	0	0.358097	-0.458698	0.486689	0.648338	0.80964	0	0
15.28	0.770977	1.47188	0.874332	0.628643	-0.199222	0.802455	0.831432	-0.0465813	-0.0930814	1.21777	-0.170663	0	0	0.839928	-0.275282	-0.286063	1.31918	-0.180323	0	0	-0.647766	0.171175	-0.158054	0.679815	-0.230093	0.87361	0.286531	0.989941	0	0	0.363084	-0.460687	0.494721	0.648126	0.800327	0	0
15.29	0.747135	1.46852	0.899294	0.628657	-0.200238	0.800202	0.841702	-0.0462195	-0.0926062	1.22539	-0.169863	0	0	0.85115	-0.274872	-0.283206	1.32626	-0.17972	0	0	-0.649831	0.172086	-0.157196	0.682079	-0.230229	0.872197	0.28728	0.989801	0	0	0.367847	-0.461673	0.500433	0.647601	0.793824	0	0
15.3	0.7407	1.46682	0.906763	0.629001	-0.200782	0.798434	0.847978	-0.0457728	-0.0926661	1.23135	-0.168383	0	0	0.858263	-0.276472	-0.282211	1.33248	-0.179286	0	0	-0.654879	0.172286	-0.155126	0.68317	-0.230809	0.869547	0.289068	0.989811	0	0	0.372737	-0.462389	0.504405	0.64683	0.790298	0	0
